<svg width="175" height="30" fill="none" viewBox="0 0 175 30" xmlns="http://www.w3.org/2000/svg" data-v-5854b9f1=""><clipPath id="d"><path d="m161 4.5h9v9h-9z"></path></clipPath> <mask id="c" x="0" y="0" width="159" height="30" maskUnits="userSpaceOnUse"><path d="m159 0h-159v30h159z" fill="#fff"></path></mask> <g mask="url(#c)"><g fill="#191924"><path d="m16.9058 6.61104-.0187-.01141-.0433-.01369c.0175.01524.0392.02407.062.0251z"></path> <path d="m16.9143 6.60733c-.0027-.00034-.0053-.00096-.0078-.00186v.0052c.0028-.00037.0055-.00153.0078-.00334z"></path> <path d="m17.1641 8.64273.0316-.01863.0118-.00684.0106-.01179c-.02.00894-.0383.02156-.054.03726z"></path> <path d="m16.9581 6.65549-.0309-.03042-.021-.01179c.0115.02056.0299.03571.0519.04221z"></path> <path d="m9.19568 26.3633c-.02468.011-.0463.0283-.06287.0502l.01948-.0129c.01324-.0126.03199-.0274.04339-.0373z"></path> <path d="m13.6983 25.441c0-.0289-.0136-.0236-.0103.079 0-.0083.0034-.0167.0048-.0247.0019-.0182.0033-.0361.0055-.0543z"></path> <path d="m13.2348 26.3633c-.0247.011-.0463.0283-.0629.0502l.0195-.0129c.0133-.0126.032-.0274.0434-.0373z"></path> <path d="m6.01149 26.5788c-.01873-.0169-.04166-.0279-.06618-.0319.01985.0098.03971.0197.05295.0273z"></path> <path d="m5.29174 25.8664c-.00293-.03-.01182-.0588-.02612-.0852.01012.0275.01861.0554.02538.0838z"></path></g> <path d="m10.1 13.1245c-.9817.437-2.09577.9326-3.53964.9326-.60402-.0013-1.2051-.0875-1.78692-.2562l.99862 10.6623c.03534.4457.23056.8612.54689 1.1641.31632.3029.73061.471 1.1606.4709 0 0 1.41593.0765 1.8884.0765.5085 0 2.03325-.0765 2.03325-.0765.4299 0 .8441-.1682 1.1604-.471.3162-.3029.5114-.7184.5467-1.164l1.0696-11.7823c-.478-.1697-.9604-.2825-1.5042-.2825-.9405-.0004-1.6983.3364-2.5737.7261z" fill="#fd0"></path> <path d="m1.67969 8.58594.01692.01635.01103.00684c-.0085-.00873-.01786-.01651-.02795-.02319z" fill="#191924"></path> <path d="m18.7951 7.59668-.1503-.78882c-.135-.70777-.4413-1.37653-1.1398-1.63233-.224-.08183-.478-.117-.6497-.28639s-.2225-.43246-.2622-.67641c-.0735-.44775-.1426-.89589-.218-1.34287-.0651-.38428-.1166-.81598-.2861-1.16852-.2206-.47337-.6783-.750204-1.1335-.933358-.2333-.090548-.4713-.167146-.713-.22942-1.1372-.312012-2.3329-.426722-3.5028-.4921069-1.40429-.0805835-2.81231-.0563048-4.21324.0726499-1.04274.09865-2.14099.217949-3.13188.593052-.36217.13727-.73536.302073-1.01075.593053-.3379.35751-.4482.91041-.20149 1.35625.17539.31661.47247.54029.78757.68827.41043.19066.83907.33575 1.27878.43284 1.22437.28142 2.49249.39192 3.74333.43895 1.38638.05819 2.77498.01104 4.15478-.14109.3412-.039.6818-.08578 1.0218-.14033.4004-.06385.6574-.60834.5393-.98765-.1411-.45349-.5206-.62938-.9497-.56094-.0632.01033-.1261.01989-.1893.02945l-.0456.00688c-.1454.01912-.2907.03696-.4361.05353-.3003.03365-.6013.06118-.903.08259-.6758.04894-1.35342.0715-2.03068.07265-.6655 0-1.33136-.0195-1.99539-.065-.30297-.02065-.6052-.04691-.9067-.07877-.13714-.01491-.27391-.03059-.41069-.04818l-.13016-.0172-.02831-.00421-.13494-.02026c-.27576-.04321-.55152-.09292-.82433-.15295-.02753-.00635-.05216-.02228-.0698-.04515-.01765-.02288-.02727-.05132-.02727-.08065s.00962-.05778.02727-.08065c.01764-.02287.04227-.0388.0698-.04515h.00515c.23641-.05238.47467-.09712.71366-.13612.07966-.013.15957-.02575.23972-.03824h.00221c.14964-.01032.30003-.03824.44894-.05659 1.29557-.14014 2.59884-.18792 3.90072-.14301.632.01912 1.2637.05774 1.8928.12427.1353.01453.2699.02983.4044.04704.0515.0065.1033.01414.1552.02064l.1044.01568c.3044.04716.6073.10439.9085.17168.4464.10095 1.0196.13383 1.2182.64238.0632.16136.0919.34069.1268.51008l.0445.21604c.0011.00387.002.00783.0026.01185.1051.50982.2104 1.01965.3158 1.52947.0077.03766.0079.07657.0005.11431-.0073.03774-.0221.07349-.0434.10503-.0212.03154-.0485.05818-.0801.07827s-.0668.03319-.1035.03849h-.0029l-.0644.00918-.0636.00879c-.2015.02728-.4032.05277-.6052.07647-.3978.04716-.7963.08795-1.1953.12236-.793.06857-1.5875.11357-2.3837.13498-.4056.01121-.81118.01644-1.21661.01568-1.61373-.00133-3.22608-.09887-4.82908-.29213-.17354-.02142-.34709-.04436-.52063-.06768.13457.01797-.0978-.01377-.14486-.02065-.11031-.01606-.22061-.03276-.33091-.05009-.37026-.05774-.7383-.12886-1.10782-.19118-.44673-.07648-.87397-.03824-1.27805.19118-.331684.18876-.600138.47821-.769547.82974-.174279.37472-.226121.7827-.304069 1.18534-.0779475.40263-.1992817.83585-.153322 1.24919.098905.89206.698589 1.61701 1.561158 1.77911.81147.153 1.62735.2769 2.44543.3824 3.21362.4093 6.46021.4583 9.68391.1461.2625-.0255.5247-.0533.7865-.0834.0817-.0093.1645.0005.2421.0287.0777.0282.1483.0741.2066.1344.0584.0603.1031.1334.1308.2139.0277.0806.0377.1665.0293.2516l-.0816.8252c-.1645 1.6674-.3289 3.3346-.4934 5.0017-.1716 1.7508-.3443 3.5014-.5181 5.2518-.049.493-.098.9859-.147 1.4787-.0471.4852-.0537.9857-.1423 1.4652-.1398.754-.6306 1.2171-1.3468 1.3865-.6562.1553-1.3265.2368-1.9995.2431-.746.0042-1.49165-.0302-2.23767-.026-.79639.0046-1.77184-.0718-2.38659-.6882-.54012-.5415-.61476-1.3892-.6883-2.1222-.09804-.9704-.19523-1.9407-.29156-2.9109l-.54049-5.3948-.34966-3.4907c-.00589-.0577-.01177-.1147-.01728-.1728-.04192-.4164-.3254-.824-.77213-.803-.38238.0176-.81698.3556-.77212.803l.25921 2.5879.53608 5.3531c.15271 1.5205.30505 3.0414.45702 4.5624.02941.2914.05699.5835.08787.8749.16803 1.5921 1.33725 2.4502 2.78516 2.6918.84566.1415 1.71191.1706 2.57007.1851 1.10009.0183 2.21119.0623 3.29329-.1449 1.6034-.3059 2.8065-1.4194 2.9782-3.1465.049-.4986.098-.9974.1471-1.4962.163-1.6498.3257-3.2997.4882-4.9498l.5317-5.3914.2438-2.4708c.0121-.1225.0619-.2377.1419-.3286.08-.0908.1859-.1524.3022-.1758.4585-.0929.8968-.2516 1.2229-.61442.5192-.57775.6225-1.33102.439-2.0904zm-17.24737.53302c.00699-.00344-.00588.05889-.0114.08795-.0011-.04398.00111-.08298.0114-.08795zm.04449.3579c.00368-.00268.01471.01261.0261.03097-.01728-.01683-.02794-.02944-.0261-.03097zm.04376.06003c.02426.0455.01581.02791 0 0zm.08787.07418h.0022c0 .00267.00405.00535.00552.00803-.00244-.00295-.00478-.00564-.00772-.00803zm15.38805-.11089c-.1647.16289-.4129.2386-.6581.27645-2.7503.42443-5.5406.63932-8.32096.54449-1.98987-.07073-3.95879-.30054-5.9288-.58999-.19304-.02829-.40224-.065-.53498-.21298-.25002-.27913-.12721-.84121-.06213-1.17845.05956-.30896.17354-.72077.52688-.76474.55152-.0673 1.19201.17474 1.73765.26078.65691.10426 1.31628.18774 1.9781.25045 2.8245.26765 5.69644.22598 8.50844-.16557.5125-.07163 1.0232-.15486 1.5321-.24968.4534-.08451.956-.24319 1.2299.24509.1879.33266.2129.77774.1838 1.15361-.0089.16376-.0773.31778-.1919.43054z" fill="#191924"></path> <path d="m38.3646 17.6718c-.2118.4042-.503.7562-.8736 1.0549-.3705.2989-.8028.5423-1.2969.7297-.4941.1878-.9913.3138-1.4912.3781-.5001.0645-.9855.0589-1.4558-.0176-.4706-.0761-.8709-.2314-1.2-.466l.3707-3.8506c.341-.1171.7701-.2374 1.288-.3605.5176-.1229 1.0499-.211 1.5971-.2637.5471-.0528 1.0645-.0466 1.553.0177.4878.0644.8733.2197 1.1556.466.153.1405.2826.2928.3885.457.1056.1642.1703.3342.1941.51.0586.4923-.0177.9406-.2295 1.345zm-5.3824-8.20236c.2472-.15236.5442-.28732.8913-.40465.347-.11689.7029-.1992 1.0676-.24604.3645-.04662.7204-.05287 1.0677-.01762.3467.03524.653.13183.9176.28998.2646.15838.4617.38703.5911.68571.1294.29918.1647.67728.1059 1.13428-.0471.3634-.1915.6712-.4324.9231-.2411.2523-.5355.4631-.8822.633-.347.1702-.7146.305-1.1028.4042-.3885.1-.7621.1734-1.1208.22-.3588.0471-.6705.0765-.9351.0879-.2648.0118-.4386.0176-.5207.0176zm7.2882 5.71436c-.1882-.41-.4412-.7705-.7587-1.0815-.3176-.3105-.6944-.536-1.1294-.6768.188-.1523.3734-.3926.5559-.7209.1822-.3279.338-.6857.4674-1.0725.1294-.387.2178-.7765.2649-1.1693.0467-.3926.0291-.7297-.0529-1.01121-.2003-.70311-.5149-1.25409-.9443-1.65271-.4296-.3984-.9293-.67388-1.4999-.82646-.5707-.15191-1.2-.18448-1.8882-.09659s-1.3914.26077-2.1087.51863c0-.05844.0059-.12001.0177-.18447.0114-.06425.0175-.13184.0175-.20233 0-.17577-.0882-.32791-.2646-.45706-.1765-.12894-.3795-.205-.6088-.22865-.2294-.0232-.4531.02633-.6707.14946-.2178.12313-.3678.3491-.45.67679-.0942 1.0551-.1882 2.15126-.2823 3.288-.0942 1.1372-.1941 2.286-.3 3.4466-.1059 1.1604-.2118 2.3121-.3176 3.4549-.1059 1.143-.2118 2.2418-.3177 3.2967.0353.3165.1236.5628.2648.7386.1411.176.3058.2815.4941.3165.1881.0353.3853.0027.591-.0968.2058-.0993.3853-.2726.5385-.5186.4703.2578.9998.4249 1.5881.5012.5881.0761 1.185.0761 1.7912 0 .6056-.0763 1.2027-.2197 1.791-.431.5882-.2108 1.1234-.4746 1.6059-.791.4822-.3165.8881-.6772 1.2176-1.0814.3294-.4046.547-.8412.6529-1.3098.1059-.4807.1352-.9612.0882-1.4419-.047-.4805-.1648-.9258-.3529-1.3364z" clip-rule="evenodd" fill="#0d0c23" fill-rule="evenodd"></path> <path d="m57.4855 24.4653c-.0647.3868-.156.7941-.2736 1.2222-.1177.4276-.2559.8175-.4146 1.1693-.1587.3516-.3353.6355-.5291.8526-.1944.2168-.4033.3078-.6268.2728-.1764-.0239-.2882-.1352-.335-.3342-.0472-.1996-.0472-.4457 0-.7385.0468-.2932.138-.6244.2734-.9936.1353-.3692.2998-.7357.4939-1.0988.1944-.3636.4149-.7121.6618-1.0462.2472-.3339.5059-.6126.7766-.8352.0589.0703.0851.2461.0793.5276-.0063.2813-.0414.6154-.1059 1.002zm5.9824-7.6309c-.159-.1758-.3531-.2753-.5826-.2989-.2292-.0234-.4618.1055-.6969.3868-.1531.2813-.3472.5509-.5825.8088-.2353.2581-.4793.4923-.7323.7033-.253.2108-.4939.3929-.7234.545-.2292.1526-.4089.2639-.5383.3342-.0471-.375-.0737-.7794-.0793-1.2133-.0063-.4337.0027-.8731.0264-1.3186.0352-.633.1086-1.2717.2205-1.9166.1117-.6446.2736-1.2777.4854-1.8992 0-.3279-.0768-.5947-.2295-.7999-.1531-.205-.3383-.3341-.5559-.3868-.2178-.0526-.441-.0234-.6705.0879-.2294.1116-.4264.3139-.5912.6065-.1411.3871-.3029.8207-.4851 1.3012-.1827.4807-.3883.9701-.6175 1.4682-.2295.4986-.4854.982-.7677 1.4506-.2825.4691-.5914.8854-.9268 1.2485-.3351.3634-.6999.6478-1.0937.8528-.3944.2052-.8205.296-1.2794.2726-.212-.0587-.365-.2168-.459-.4749-.0943-.2576-.1499-.5802-.1674-.967-.0177-.3868-.0001-.8117.0527-1.2748.0531-.4629.1235-.9231.2117-1.3801.0882-.4573.1854-.891.2911-1.3012.1059-.4102.2057-.7562.3-1.0375.1412-.3397.1412-.6244 0-.8528-.1411-.2286-.3352-.3807-.5821-.4573-.2472-.076-.5062-.0729-.7766.009-.2707.0821-.4647.2636-.5822.5449-.2002.4809-.3825 1.0199-.5471 1.6177-.1648.5978-.2971 1.2164-.3969 1.855-.1003.6391-.1563 1.2722-.1679 1.8992-.0007.0408.0011.0797.0009.1203-.2566.6814-.501 1.1965-.7332 1.5411-.3.4457-.6385.6391-1.0148.5802-.165-.0702-.2733-.2342-.3261-.4923-.0535-.2576-.0711-.5742-.0536-.9496.0181-.3747.0622-.7997.1325-1.2746.071-.4747.159-.967.2648-1.4769.1062-.5102.2179-1.0226.3354-1.5385.1175-.5157.2232-1.0023.3177-1.4595-.0119-.4103-.1325-.7237-.362-.9407-.2292-.2166-.5498-.3016-.9613-.255-.2823.1174-.4916.2699-.6269.4573-.1354.1874-.2442.4279-.3264.7207-.0472.1526-.1177.4573-.2117.9146-.0943.4569-.2145.9817-.3616 1.5735-.1471.5923-.3206 1.2104-.5205 1.8551-.2002.6446-.4238 1.2282-.6707 1.7495-.2472.5215-.5177.9407-.8116 1.2572-.2942.3163-.6121.4455-.9532.3868-.1883-.0353-.3088-.2287-.3616-.5802-.0531-.3518-.0618-.7852-.0266-1.3012.0353-.5157.1059-1.0814.2117-1.6966.1059-.6155.2145-1.1986.3265-1.7498.1117-.5507.2146-1.0374.3089-1.4593.094-.422.1587-.7033.1941-.8438 0-.34-.0768-.6123-.2295-.8178-.1531-.2048-.338-.3339-.5557-.3868-.2178-.0526-.4414-.0234-.6707.0879-.2294.1115-.4264.3139-.5912.6065-.0589.3165-.1355.683-.2295 1.0991-.0942.416-.1851.8438-.2733 1.2835s-.1708.8704-.2472 1.2925c-.0766.422-.1322.7912-.1676 1.1077-.0235.246-.0502.5481-.0793.9054-.0296.3578-.0444.7357-.0444 1.1341 0 .3989.0296.7944.0887 1.187.0586.3928.1643.7533.3172 1.0812.1529.3283.3678.5978.6445.8088.2763.211.6263.3281 1.0499.3518.435.0232.8144-.0087 1.1381-.0968.3235-.0879.6176-.2258.8825-.4134.2646-.1871.5056-.41.7234-.6681.2174-.2576.4323-.5389.6441-.8438.2.4457.4586.7912.7763 1.0375.3177.246.6531.3928 1.0059.4394s.7119-.0027 1.0766-.1494c.3645-.1464.6938-.3955.9882-.7473.1936-.2157.3763-.4609.5478-.7319.0728.1269.1502.2494.2373.3625.2884.3754.6798.633 1.1739.7738.5292.1408 1.0465.1644 1.5527.0705.5057-.0937.9882-.2639 1.4469-.5099.4589-.2463.8852-.5421 1.2794-.8881.394-.3457.7383-.706 1.0325-1.0814-.0119.2697-.0177.5249-.0177.7649 0 .2405-.006.501-.0176.7825-.5886.4105-1.1442.9028-1.6676 1.4769-.5236.5742-.9827 1.1868-1.3767 1.8374-.394.6505-.7027 1.3099-.926 1.978-.2236.6685-.3328 1.2924-.3268 1.8729.0058.5802.144 1.087.4146 1.5206.2705.4339.7117.7444 1.3236.932.6353.1994 1.1941.205 1.6768.0176.4822-.1876.9024-.4983 1.2613-.932.3589-.4336.6528-.958.8825-1.5735.2293-.6154.4117-1.2572.5469-1.9253.1353-.6681.2208-1.325.2561-1.9692.0354-.6449.0354-1.2195 0-1.7234 1.0117-.4219 1.8407-.9552 2.488-1.6001.647-.6442 1.1823-1.3244 1.6058-2.0395.1294-.1758.1735-.3868.1326-.6329-.0415-.2462-.1413-.4572-.3-.633z" clip-rule="evenodd" fill="#0d0c23" fill-rule="evenodd"></path> <path d="m85.7249 15.7073c.0351-.2695.0882-.5539.1587-.8528s.159-.5891.2649-.8704c.1056-.2813.2292-.5245.3705-.7297.1412-.205.2912-.3515.45-.4397.1589-.0876.3203-.0789.4853.0264.1764.1057.285.3283.3264.6681.041.3404 0 .7035-.1235 1.0903-.1236.387-.3441.7502-.6618 1.0901-.3175.3402-.7471.5626-1.2882.6681-.0237-.1637-.0177-.3807.0177-.6504zm6.1145.7207c-.1941-.0582-.3793-.0642-.5559-.0174-.1764.0468-.2884.17-.3352.3694-.0944.375-.2444.7589-.4502 1.1515-.2059.3928-.4587.7649-.7585 1.1166-.3.3516-.6385.6623-1.0148.9318-.3765.2697-.7706.4631-1.1823.5802-.4121.1292-.7531.1437-1.0235.0439-.2707-.0992-.4854-.2694-.6441-.5097-.1587-.2402-.2736-.5304-.3441-.8704-.0707-.3399-.1119-.6915-.1236-1.0551.6705.0471 1.2676-.0729 1.7912-.3605.5232-.2868.9674-.6681 1.3323-1.1427.3645-.4747.641-1.0081.8292-1.6001.1881-.5918.2942-1.1809.3177-1.7671.0117-.551-.0705-1.0168-.2469-1.3978-.1764-.3808-.4149-.6772-.7148-.888-.2998-.211-.6441-.3342-1.0323-.3692-.388-.0352-.7825.0176-1.1823.1582-.4827.1641-.8913.4307-1.2264.8001-.3354.3692-.615.7973-.8382 1.2835-.2236.4865-.4 1.011-.5294 1.5736-.1297.5628-.2237 1.1166-.2823 1.6618-.0531.4892-.0813.957-.0914 1.4085-.0251.0573-.0495.1124-.0763.1737-.1825.4165-.3945.8238-.6354 1.2222-.2411.3986-.5089.7328-.8028 1.0023-.2942.2696-.6.3633-.9177.2812-.1882-.0466-.291-.2638-.3087-.6504-.0177-.387.0027-.8675.0616-1.4419.0589-.5742.1265-1.1959.203-1.864.0764-.6681.1147-1.3067.1147-1.9164 0-.5275-.1001-1.0343-.3-1.5211-.2002-.486-.4738-.8907-.8205-1.213-.3473-.3225-.75-.5365-1.2087-.6418-.459-.1057-.9531-.0352-1.4823.2108-.5297.2463-.9501.5921-1.2618 1.0375-.312.4457-.5973.9144-.8558 1.4067-.0945-.3752-.2324-.7236-.4149-1.0462-.1824-.3223-.4056-.6036-.6705-.8441-.2648-.24-.5621-.4276-.891-.5626-.3295-.1345-.6768-.2021-1.0415-.2021-.3528 0-.6792.0676-.9792.2021-.3.135-.5736.3077-.8207.5187-.2469.2112-.4704.4483-.6705.7122-.1999.2637-.3768.5247-.5293.7823-.0239-.3047-.0503-.5712-.0794-.8001-.0296-.2284-.0826-.4218-.159-.58-.0765-.1584-.1851-.2784-.3264-.3605-.1413-.0818-.3412-.1231-.5997-.1231-.1297 0-.2593.0263-.3885.079-.1296.0528-.2444.1262-.3441.2199-.1.0941-.1764.2081-.2292.3429-.0533.1347-.0676.2902-.0443.4659.0116.1292.0443.2842.0971.466.0529.1818.1028.4194.15.7121.0468.2931.0851.6478.1146 1.0638.0294.4162.0381.9262.0265 1.5298-.0119.6038-.056 1.3098-.1324 2.1187-.0767.8088-.1972 1.7466-.3617 2.8131-.0235.2462.0705.4457.2825.598.2116.1521.4527.24.7233.2637.2705.0234.5266-.0237.7677-.1406.2411-.1175.3795-.3225.4146-.6154.0354-.551.103-1.137.2031-1.7584.0998-.6211.2234-1.2365.3705-1.8461.1471-.6095.3145-1.1897.503-1.7409.1881-.5509.397-1.0372.6264-1.4593.2295-.422.4677-.7588.7146-1.0109.2472-.2521.5058-.3781.7767-.3781.3293 0 .5849.1492.7676.4481.182.2992.3114.6833.3882 1.1517.0764.4691.1115.9822.1059 1.5388-.0063.5567-.0295 1.093-.0707 1.6087-.0412.516-.0882.9759-.1413 1.3804-.0528.4044-.0911.683-.1144.8351 0 .2697.1028.4834.3085.6418.2057.1581.4352.2521.6884.2813.253.0294.491-.0176.7146-.1408.2235-.1231.3529-.3308.3882-.6241.1176-.8439.2794-1.6907.4852-2.5405.2057-.8499.4412-1.6117.7061-2.2858.2646-.6741.5585-1.2251.8822-1.6529.3235-.4277.6676-.6418 1.0326-.6418.1878 0 .3322.1291.432.3868.0999.2579.15.6094.15 1.0549 0 .3283-.0264.6654-.0792 1.0111-.0531.3458-.1146.7034-.1854 1.0726-.0705.3694-.1323.7472-.1854 1.134-.0528.387-.0792.7912-.0792 1.2133 0 .2931.0293.6331.0882 1.0199.0587.3865.1704.7533.3351 1.0988.1648.346.3911.6388.6797.8791.2881.2402.6555.3605 1.1026.3605.6707 0 1.2647-.1437 1.7825-.4308.5176-.2871.9618-.662 1.3323-1.1251.0192-.0243.0367-.0502.0555-.0743.0284.0685.0535.141.0855.2061.253.5157.5971.9141 1.0325 1.1956.435.2813.9468.4366 1.5353.466.5882.029 1.2291-.0794 1.9236-.3254.5174-.1876.9673-.4221 1.3497-.7033.3822-.2813.7263-.6242 1.0323-1.0286s.5852-.8704.8384-1.3978c.253-.5277.5087-1.1311.7675-1.8113.047-.1871.0029-.3542-.1321-.501-.1355-.1463-.3-.2489-.4943-.3078z" clip-rule="evenodd" fill="#0d0c23" fill-rule="evenodd"></path> <path d="m101.433 14.4715c-.059.346-.138.7272-.238 1.143-.1.4162-.227.847-.379 1.2925-.153.4454-.342.8469-.565 1.2043-.224.3578-.4795.6418-.7677.8528-.2883.211-.6205.2989-.9971.2636-.1883-.0232-.3324-.1521-.4323-.3868-.1001-.2342-.1529-.5333-.1589-.8967-.0059-.3631.0264-.7618.0971-1.1956.0705-.4334.1793-.8586.3266-1.2749.1469-.4158.3265-.7999.538-1.1517.2118-.3515.4558-.6241.7325-.8175.2763-.1934.5798-.284.9088-.2726.329.0118.682.1758 1.059.4923-.024.1526-.065.4018-.124.7473zm6.273 1.3451c-.182-.0937-.37-.114-.564-.0613-.194.0526-.333.2315-.415.5362-.047.3284-.153.7149-.317 1.1604-.165.4455-.368.8677-.609 1.2659-.242.3986-.518.7299-.83.9936-.312.2638-.644.3841-.997.3602-.294-.0232-.5-.1726-.617-.4481-.118-.2755-.18-.6211-.186-1.0375-.006-.4158.036-.8847.124-1.4065.088-.5215.194-1.0401.317-1.5563.124-.5155.25-1.0109.38-1.4856.129-.4747.235-.8762.318-1.2044.094-.2931.064-.542-.089-.7475-.153-.2047-.344-.3515-.573-.4394-.23-.0879-.462-.1113-.697-.0703-.236.0411-.388.1671-.459.3779-.694-.5978-1.362-.9202-2.003-.967-.6412-.0468-1.2324.0939-1.7733.422-.5413.3282-1.0207.8029-1.4382 1.4243-.4177.6215-.756 1.2983-1.0148 2.0308-.2588.7326-.4207 1.4801-.4851 2.2419-.065.762-.0151 1.4566.1499 2.0836.1648.6271.4556 1.1401.8736 1.5383.4173.3986.9851.5981 1.7028.5981.3177 0 .6235-.0645.9177-.1934.2939-.1292.5646-.2816.8114-.4573.247-.1758.465-.3605.653-.5539s.335-.3545.441-.4836c.082.422.218.7798.406 1.0727s.403.5336.644.7207c.241.1874.494.3253.759.4134.265.0879.521.1318.768.1318.553 0 1.07-.1876 1.553-.5628.482-.3747.914-.8351 1.297-1.3801.382-.5452.697-1.1194.944-1.7232.247-.6036.411-1.1399.494-1.609.082-.1758.067-.3602-.044-.5536-.112-.1934-.259-.3369-.442-.431z" clip-rule="evenodd" fill="#0d0c23" fill-rule="evenodd"></path> <path d="m139.476 25.5247c-.099.3984-.255.7356-.467 1.0109-.212.2755-.477.4191-.794.431-.2.0116-.353-.0939-.459-.3166-.106-.2228-.179-.5099-.221-.8615-.041-.3517-.059-.7446-.053-1.1782s.024-.8615.053-1.2835c.03-.4218.065-.8149.106-1.178.041-.3636.074-.6445.097-.8439.4.0468.733.2195.997.5186.265.2989.468.6534.609 1.0638.141.4102.224.8528.247 1.3275.024.4747-.015.9112-.115 1.3099zm-6.388 0c-.099.3984-.256.7356-.467 1.0109-.212.2755-.477.4191-.794.431-.2.0116-.353-.0939-.459-.3166-.106-.2228-.18-.5099-.221-.8615-.041-.3517-.059-.7446-.053-1.1782s.024-.8615.053-1.2835c.029-.4218.065-.8149.106-1.178.041-.3636.073-.6445.097-.8439.4.0468.733.2195.997.5186.265.2989.468.6534.609 1.0638.141.4102.224.8528.247 1.3275.024.4747-.015.9112-.115 1.3099zm-6.555-9.987c-.012.2811-.039.5302-.08.7471-.041.2172-.097.3546-.167.4133-.13-.0705-.289-.2518-.477-.5452-.188-.2929-.335-.6243-.441-.9935s-.139-.7324-.097-1.0902c.041-.3573.226-.6355.556-.8351.129-.0703.241-.044.335.0792.094.1231.171.3018.23.5362.058.2347.099.5042.123.8089.023.3049.029.5978.018.8793zm-1.562 3.5077c-.183.1932-.386.3603-.609.501-.223.1408-.453.2463-.688.3166-.235.0705-.447.0879-.635.0526-.53-.1053-.936-.3341-1.218-.6857-.282-.3515-.462-.7647-.538-1.2393-.077-.475-.068-.982.026-1.5211.094-.5392.253-1.0402.477-1.5033.223-.4631.494-.8617.811-1.1956.318-.3342.665-.5421 1.042-.6244-.142.5978-.189 1.2164-.142 1.855.047.6389.201 1.2396.459 1.8022.165.3404.362.6507.591.932.23.2815.509.5217.839.7209-.094.1994-.233.3957-.415.5891zm19.526-3.3319c.035-.2695.088-.5541.159-.853.07-.2987.159-.5889.264-.8702.106-.2815.23-.5247.371-.7297s.291-.3517.45-.4396.32-.0792.485.0263c.177.1057.285.3283.327.6681.041.3401 0 .7033-.124 1.0903-.123.3868-.344.7502-.661 1.0899-.318.3404-.748.5628-1.289.6683-.023-.1639-.017-.3807.018-.6504zm7.112 0c.035-.2695.088-.5541.158-.853.071-.2987.159-.5889.265-.8702.106-.2815.229-.5247.371-.7297.141-.205.291-.3517.45-.4396s.32-.0792.485.0263c.176.1057.285.3283.326.6681.042.3401 0 .7033-.123 1.0903-.124.3868-.344.7502-.662 1.0899-.317.3404-.747.5628-1.288.6683-.024-.1639-.018-.3807.018-.6504zm6.608 1.0285c-.135-.1463-.3-.2489-.494-.3078-.194-.0584-.379-.0642-.556-.0174-.176.0469-.288.17-.335.3692-.094.3752-.244.7591-.45 1.1515-.206.393-.459.7651-.759 1.1166-.3.3516-.638.6625-1.014.932-.377.2697-.771.4631-1.183.58-.412.1294-.753.1439-1.023.0442-.271-.0995-.486-.2695-.644-.5098-.159-.2404-.274-.5304-.344-.8706-.071-.3397-.112-.6913-.124-1.0549.671.0471 1.268-.0729 1.791-.3604.523-.2871.968-.6684 1.333-1.143.364-.4745.641-1.0079.829-1.5999s.294-1.1809.318-1.7671c.011-.551-.071-1.017-.248-1.398-.176-.3808-.414-.677-.714-.8878-.3-.2112-.644-.3342-1.033-.3694-.388-.0352-.782.0178-1.182.1582-.482.1644-.891.4309-1.226.8001-.336.3694-.615.7975-.839 1.2835-.223.4868-.4 1.011-.529 1.5738-.13.5625-.224 1.1166-.282 1.6616-.057.5289-.089 1.035-.095 1.5195-.045.0966-.092.1937-.144.2914-.206.393-.458.7651-.758 1.1166-.3.3516-.639.6625-1.015.932-.377.2697-.771.4631-1.182.58-.412.1294-.753.1439-1.024.0442-.271-.0995-.485-.2695-.644-.5098-.159-.2404-.274-.5304-.344-.8706-.071-.3397-.112-.6913-.124-1.0549.671.0471 1.268-.0729 1.792-.3604.523-.2871.967-.6684 1.332-1.143.364-.4745.641-1.0079.829-1.5999s.294-1.1809.318-1.7671c.011-.551-.071-1.017-.247-1.398-.177-.3808-.415-.677-.715-.8878-.3-.2112-.644-.3342-1.032-.3694s-.783.0178-1.183.1582c-.482.1644-.891.4309-1.226.8001-.335.3694-.615.7975-.838 1.2835-.224.4868-.4 1.011-.53 1.5738-.129.5625-.223 1.1166-.282 1.6616-.033.3074-.056.6054-.072.8981-.114.0963-.225.1934-.343.2886-.405.3284-.832.6242-1.279.8881-.448.2638-.912.4807-1.394.6506-.483.17-.977.2726-1.483.3076l1.095-11.67513c.07-.24627.035-.46287-.106-.65047s-.324-.31653-.547-.38679c-.224-.07049-.462-.06447-.715.01739-.253.08232-.462.26992-.627.56258-.082.44569-.167 1.05511-.255 1.82871-.089.7736-.177 1.61771-.265 2.53211-.088.9143-.176 1.8579-.265 2.8307-.088.9732-.165 1.8816-.229 2.7254-.003.0375-.005.0714-.008.1085-.103.0869-.203.1746-.31.2607-.405.3284-.832.6242-1.279.8881-.448.2638-.912.4807-1.394.6506-.483.17-.977.2726-1.483.3076l1.095-11.67513c.07-.24627.035-.46287-.106-.65047s-.324-.31653-.548-.38679c-.223-.07049-.461-.06447-.714.01739-.253.08232-.462.26992-.627.56258-.082.44569-.167 1.05511-.255 1.82871-.089.7736-.177 1.61771-.265 2.53211-.088.9143-.176 1.8579-.265 2.8307-.088.9732-.165 1.8816-.229 2.7254-.001.017-.003.0324-.004.0493-.185.0855-.386.1604-.605.2233-.224.0647-.476.1029-.759.1145.047-.2113.085-.4457.115-.7036.029-.2576.053-.5273.071-.8088.017-.2811.023-.5626.017-.8439-.006-.2815-.021-.5392-.044-.7738-.059-.5037-.168-.9815-.326-1.433-.159-.451-.374-.8289-.644-1.1341-.271-.3047-.609-.5099-1.015-.6152-.406-.1055-.88-.0705-1.421.1053-.8-.1053-1.52-.0319-2.162.2199-.641.2523-1.197.6184-1.667 1.0989-.471.4809-.856 1.0461-1.156 1.6968-.3.6505-.5 1.3188-.6 2.0043-.042.2907-.063.58-.069.8686-.182.3717-.382.6964-.602.969-.311.3868-.635.7034-.97.9494-.335.2463-.668.4339-.997.5628-.33.1292-.624.217-.882.2637-.306.0586-.6.0647-.883.0176-.282-.0466-.541-.1816-.776-.4044-.188-.164-.333-.4279-.433-.7913-.1-.3633-.158-.7762-.176-1.2395-.018-.4631 0-.9467.053-1.4506.053-.504.144-.9818.273-1.433.13-.4513.294-.8557.495-1.2135.199-.3571.435-.6123.705-.7647.153.0237.248.1142.283.2724.035.1584.044.346.026.5628-.017.217-.044.4396-.079.6681-.035.2286-.053.4193-.053.5715.059.3165.173.5628.344.7385.17.1758.362.2786.574.3076.211.0295.42-.0203.626-.1494.206-.1287.373-.3339.503-.6155.012.0119.029.0177.053.0177l.247-2.2329c.07-.305.023-.5744-.141-.8089-.165-.2344-.383-.3694-.653-.4044-.342-.4923-.803-.7531-1.385-.7825-.583-.0292-1.18.1613-1.792.5715-.376.2699-.708.6417-.997 1.1164-.288.4749-.523 1.0023-.705 1.5825-.183.5802-.312 1.1929-.389 1.8376-.076.6447-.091 1.2719-.044 1.8811.047.6099.156 1.1843.327 1.7232.17.5394.408.9907.714 1.3538.259.3166.553.5483.883.6949.329.1465.673.2371 1.032.2723.359.0351.715.0203 1.068-.0439s.688-.155 1.005-.2726c.412-.1521.836-.3457 1.271-.5802.435-.2342.853-.5157 1.253-.8441.21-.1726.413-.3609.609-.5628.089.2204.189.4337.309.6333.317.5273.746.9554 1.288 1.2835.541.3282 1.205.4861 1.994.4747.847-.0118 1.629-.2255 2.347-.6417.717-.4158 1.306-1.0288 1.765-1.8374.687 0 1.363-.1129 2.028-.3371-.006.0709-.012.1457-.017.2141-.047.6213-.071 1.0431-.071 1.266-.011.3868-.037.8643-.079 1.4327-.041.5686-.067 1.1664-.079 1.7935-.012.627.012 1.2601.07 1.8992.059.6386.183 1.219.371 1.7408.188.5213.456.9639.803 1.3275.347.3631.803.5802 1.368.6504.599.0819 1.117-.0236 1.552-.3165.435-.2931.788-.6944 1.059-1.2043.271-.5102.462-1.0991.574-1.7672.111-.6681.144-1.3393.097-2.0134s-.171-1.3098-.371-1.9074c-.2-.5981-.476-1.0904-.829-1.4774.212-.0582.464-.1695.759-.3339.293-.164.596-.3487.909-.5539.076-.0504.152-.1035.228-.1553-.029.4154-.043.7116-.043.8852-.012.3868-.038.8643-.08 1.4327-.041.5686-.067 1.1664-.079 1.7935-.012.627.012 1.2601.07 1.8992.059.6386.183 1.219.371 1.7408.188.5213.456.9639.803 1.3275.347.3631.803.5802 1.368.6504.599.0819 1.117-.0236 1.552-.3165.436-.2931.789-.6944 1.059-1.2043.271-.5102.462-1.0991.574-1.7672.111-.6681.144-1.3393.097-2.0134s-.171-1.3098-.371-1.9074c-.2-.5981-.476-1.0904-.829-1.4774.212-.0582.464-.1695.759-.3339.294-.164.596-.3487.909-.5539.161-.1066.323-.2166.483-.3297.061.5733.191 1.0761.399 1.499.253.516.597.9144 1.032 1.1959.435.281.947.4365 1.535.4657.589.029 1.23-.0792 1.924-.3254.517-.1874.967-.4218 1.35-.7031.382-.2815.726-.6244 1.032-1.0286.018-.0234.035-.0489.052-.0725.054.1642.115.3219.186.468.253.516.598.9144 1.033 1.1959.435.281.947.4365 1.535.4657.588.029 1.229-.0792 1.924-.3254.517-.1874.967-.4218 1.35-.7031.382-.2815.726-.6244 1.032-1.0286.306-.4046.585-.8706.838-1.398.253-.5275.509-1.1309.768-1.811.047-.1874.002-.3545-.133-.5011z" clip-rule="evenodd" fill="#0d0c23" fill-rule="evenodd"></path></g> <g clip-path="url(#d)"><path d="m165.078 5.6274c-1.906 0-3.451 1.54494-3.451 3.45073 0 1.90577 1.545 3.45067 3.451 3.45067s3.451-1.5449 3.451-3.45067c0-1.90579-1.545-3.45073-3.451-3.45073zm-4.078 3.45073c0-2.25229 1.826-4.07813 4.078-4.07813s4.078 1.82584 4.078 4.07813c0 2.25227-1.826 4.07817-4.078 4.07817s-4.078-1.8259-4.078-4.07817zm2.823-1.56892c0-.17325.141-.3137.314-.3137h1.255c.333 0 .652.1322.887.36752s.368.55449.368.88729c0 .33279-.133.65196-.368.88728-.094.0938-.201.17121-.317.2304l.628.8995c.099.1421.064.3377-.078.4368-.142.0992-.337.0644-.437-.0777l-.782-1.12148h-.842v.94108c0 .1733-.141.3137-.314.3137s-.314-.1404-.314-.3137zm1.631 1.5654c-.014-.00001-.028.00091-.042.00277-.006.00023-.013.00034-.02.00034h-.941v-1.25481h.941c.166 0 .326.0661.443.18376.118.11766.184.27725.184.44365 0 .16639-.066.32598-.184.44364-.102.10285-.237.16631-.381.18065z" clip-rule="evenodd" fill="#0d0c23" fill-rule="evenodd"></path></g></svg>
